<svg xmlns="http://www.w3.org/2000/svg" viewBox="0 0 512 512" style="height: 512px; width: 512px;"><defs><filter id="shadow-1" height="300%" width="300%" x="-100%" y="-100%"><feFlood flood-color="rgba(0, 0, 0, 0.95)" result="flood"></feFlood><feComposite in="flood" in2="SourceGraphic" operator="atop" result="composite"></feComposite><feGaussianBlur in="composite" stdDeviation="15" result="blur"></feGaussianBlur><feOffset dx="0" dy="0" result="offset"></feOffset><feComposite in="SourceGraphic" in2="offset" operator="over"></feComposite></filter></defs><path d="M0 0h512v512H0z" fill="url(#pattern)" fill-opacity="1"></path><svg><defs><filter id="b" x="-.024" width="1.048" y="-.024" height="1.048" color-interpolation-filters="sRGB"><feGaussianBlur stdDeviation="4.823"></feGaussianBlur></filter><filter id="a" x="-.012" width="1.024" y="-.012" height="1.024" color-interpolation-filters="sRGB"><feGaussianBlur stdDeviation="2.55"></feGaussianBlur></filter><filter id="c" x="-.112" width="1.225" y="-.077" height="1.153" color-interpolation-filters="sRGB"><feGaussianBlur stdDeviation="15.63"></feGaussianBlur></filter><filter id="e" x="-.237" width="1.475" y="-.249" height="1.497" color-interpolation-filters="sRGB"><feGaussianBlur stdDeviation="18.7"></feGaussianBlur></filter><filter id="d" x="-.213" width="1.426" y="-.151" height="1.303" color-interpolation-filters="sRGB"><feGaussianBlur stdDeviation="18.7"></feGaussianBlur></filter></defs><path d="M196.6 1.207c-2.5 11.323-4.8 22.703-10.2 33.383-7-10.68-12.6-20.91-16.7-31.988L2.494 4.338C13 104.9 10.86 175.3 1.979 278.3L15.4 295.5l-9.494 6.3L2.6 462.7l1.019 45.9 112.681 3.1c3.6-16.1 6.5-32.5 13.2-47.3 4.5 14.4 5.7 29.4 7 44.4l160 .3c.8-6.1.7-8.1 2.3-14.4 5.1 4.5 7.8 9.5 10.6 14.5.8-10.1 3.9-19.8 7-29.5 4.8 9.2 6.7 19.4 8.8 29.5l185.2.4-4.6-78.2-21.4-8.2 21.3-4.9 5.8-395.47c-7-6.73-13.3-13.744-18-21.465l-15.1.114-2.1 20.321-1.4 47.23.8 84.87-8.6-97.14c9.3-16.86 2.2-39.69 5.7-55.239-92.1 1.696-184.1.685-276.2-.314z" overflow="visible" color="#000" fill="#ebc893" fill-rule="evenodd" stroke="#e0aa58" enable-background="accumulate"></path><path d="M196.6 1.203c-2.5 11.327-4.8 22.707-10.2 33.387-7-10.68-12.6-20.91-16.7-31.99L2.494 4.336C13 104.9 10.86 175.3 1.979 278.3L15.4 295.5l-9.494 6.3L2.6 462.7l1.019 45.9 112.681 3.1c.5-2.1-7.9-2.3-7.4-4.5L5.244 504.5l-.914-47.3 4.63-153.7 12.42-9-13.093-16.8C16.95 177.3 16.36 104 6.113 5.992l162.687.164c4 10.804 10.3 24.254 17.1 34.664 5.3-10.41 9.5-25.97 12-37.02 89.8.974 173.8 3.521 263.6 1.867 4.6 1.226 10.6.431 11.3-4.149-92.1 1.696-184.1.684-276.2-.315zm296.9.158l-15.1.116-.6 6.277 13.5-2.557c4.6 7.533 9.7 12.383 16.6 18.943l-4.6 389.06-19.9 9.9 4.1-.6 18.2-4.2 5.8-395.47c-7-6.73-13.3-13.748-18-21.469zm9.6 435.739l3.5 69.7-177.7.1c.4 2.1-4.1.2-3.7 2.3l185.2.4-4.6-78.2zm-370 25.1c-1 2.2-2.9.4-3.7 2.6 4.2 14 5.8 29.5 7.1 44l158 .3c1.9-5 .8-9.7 4.3-14.4 5.1 4.5 7.8 9.5 10.6 14.5.8-10.1 3.9-19.8 7-29.5 1.8 3.4 3.2 7 4.3 10.6-1.4-5.6-2.4-8.3-5.1-13.4-3 9.4-6.7 16.2-7.5 26-2.7-4.9-5.4-9.7-10.4-14.1-3.4 4.6-6.2 9.1-8 14l-147.6 3.4c-3.4-14.6-7.1-30.3-9-44z" overflow="visible" color="#000" opacity=".527" fill="#c87137" fill-rule="evenodd" filter="url(#a)" enable-background="accumulate"></path><path color="#000" fill="#f6e7d0" d="M200.1 16.1c-2.3 10.67-10.5 21.38-15.6 31.44-6.6-10.06-13.9-19.69-17.7-30.12L17.34 19.05C24.61 113.6 7.605 179.3 16.85 277l18.26 20.1L10.34 309l7.1 141.6.96 43.3 90.2 3.4c3.4-15.2 15-35.6 21.3-49.6 4.3 13.6 15.4 36.7 16.6 50.9l45.1.8 13.8-18.7 14.4 22.2 68.7-8.6c1.8-4.7 4.5-9.1 7.8-13.5 4.8 4.2 7.4 8.9 10 13.6.8-9.5 7.7-19.6 10.6-28.7 4.5 8.6 19.9 28.9 33.1 33.9l114.6 5.6 22.3-14.7 19.4 14.7-14.5-67.6-34.6-14.2 37.5-15.1 2.1-96.9-14.5-21.9 15.2-13.4 5.1-239.63c-5.2-21.09-11.8-24.89-16.9-20.22l-4.2 2.11 2 19.14.7 44.47-7.1 124.23-18.3-137.78c8.8-15.88-3.9-35.38-.6-50.02-67.1 1.24-140.4-13.332-202.8-3.28-14 2.25-23.7 21.31-36.9 24.48-4.3 1.03-13.9-23.45-18.4-23.5z" overflow="visible" enable-background="accumulate" filter="url(#b)" fill-rule="evenodd"></path><path d="M354 27.39l-70.3 96.91 46.4 97.6-56.2 43.6 33 74.4-30.2 63.2 69.8 48.8 31.6 29.5 31.6-13.3L365.9 335l55.5-36.5 2.1-146.1-56.9-101.83zM116.6 55.48L89.9 123.6s33.7 65.3 35.8 68.8c2.1 3.6-7 118-7 118l42.8 73.8s9.9-82.9 7.1-83.6c-2.8-.7-29.5-42.1-29.5-42.1l23.8-84.3-36.5-37.2z" color="#000" overflow="visible" fill="#f2dbb9" fill-rule="evenodd" filter="url(#c)" enable-background="accumulate"></path><path d="M39.33 172.1l-5.62 108.1L74.45 328 42.84 464.9l96.96-39.3 30.2 42.9 74.4-38.7-80.8-169.9-60.4-16.9z" color="#000" overflow="visible" fill="#eed3a4" fill-rule="evenodd" enable-background="accumulate" filter="url(#d)"></path><path d="M266.9 66.72L324.5 191 434 221.2l21.8-111.6-41.4-68.86z" color="#000" overflow="visible" fill="#eed3a4" fill-rule="evenodd" enable-background="accumulate" filter="url(#e)"></path></svg><g class="" transform="translate(0,0)" style="touch-action: none;"><path d="M311.313 25.625l-23 10.656-29.532 123.032 60.814-111.968-8.28-21.72zM59.625 50.03c11.448 76.937 48.43 141.423 100.188 195.75 14.133-9.564 28.405-19.384 42.718-29.405-22.156-27.314-37.85-56.204-43.593-86.28-34.214-26.492-67.613-53.376-99.312-80.064zm390.47.032C419.178 76.1 386.64 102.33 353.31 128.22c-10.333 58.234-58.087 112.074-118.218 158.624-65.433 50.654-146.56 92.934-215.28 121.406l-.002 32.78c93.65-34.132 195.55-81.378 276.875-146.592C375.72 231.06 435.014 151.375 450.095 50.063zm-236.158 9.344l-8.5 27.813 40.688 73.06-6.875-85.31-25.313-15.564zm114.688 87.813C223.39 227.47 112.257 302.862 19.812 355.905V388c65.917-27.914 142.58-68.51 203.844-115.938 49.83-38.574 88.822-81.513 104.97-124.843zm-144.563 2.155c7.35 18.89 19.03 37.68 34 56.063 7.03-4.98 14.056-10.03 21.094-15.094-18.444-13.456-36.863-27.12-55.094-40.97zM352.656 269.72c-9.573 9.472-19.58 18.588-29.906 27.405 54.914 37.294 117.228 69.156 171.906 92.156V358.19c-43.86-24.988-92.103-55.13-142-88.47zm-44.906 39.81c-11.65 9.32-23.696 18.253-36.03 26.845C342.046 381.51 421.05 416.15 494.655 442.75v-33.22c-58.858-24.223-127.1-58.727-186.906-100zm-58.625 52.033l-46.188 78.25 7.813 23.593 27.75-11.344 10.625-90.5zm15.844.812L316.343 467l36.47 10.28-3.533-31.967-84.31-82.938z" fill="#f40707" fill-opacity="1" filter="url(#shadow-1)" stroke="#060606" stroke-opacity="1" stroke-width="2"></path></g></svg>