<svg width="427" height="255" viewBox="0 0 427 255" fill="none" xmlns="http://www.w3.org/2000/svg">
<g filter="url(#filter0_d)">
<mask id="path-1-outside-1" maskUnits="userSpaceOnUse" x="7.50195" y="7.05566" width="413" height="196" fill="black">
<rect fill="white" x="7.50195" y="7.05566" width="413" height="196"/>
<path fill-rule="evenodd" clip-rule="evenodd" d="M206.403 11.2789C192.674 12.98 180.618 21.843 175.962 33.6569C172.436 42.6035 172.71 53.9351 176.635 61.5268L177.789 63.7608L177.987 60.1986C178.163 57.0085 178.369 56.0541 179.964 51.0609C180.943 47.9944 181.958 44.747 182.219 43.8447C182.481 42.942 182.8 42.3148 182.929 42.4508C183.058 42.5864 184.291 45.4036 185.67 48.7112C188.61 55.7658 189.323 57.0602 191.36 59.0442C192.605 60.2572 196.24 62.9913 196.599 62.9845C196.651 62.9836 196.713 61.555 196.737 59.8096C196.793 55.7537 197.302 52.4009 198.397 48.8927C198.875 47.3594 199.356 45.0595 199.465 43.7818C199.574 42.504 199.879 40.692 200.142 39.755C202.215 32.3699 209.097 27.6567 216.064 28.8514C221.368 29.7612 225.043 33.1901 227.084 39.1355C227.548 40.4882 227.669 41.7328 227.669 45.1757C227.669 49.952 227.261 52.0429 225.661 55.4749L224.759 57.4112L226.561 59.6566C228.29 61.8106 232.671 66.2022 238.425 71.5501L241.128 74.0622L242.868 71.3897C246.325 66.0796 249.384 58.7682 250.597 52.9195C251.802 47.1125 251.399 40.2813 249.512 34.5069C245.596 22.5226 236.427 14.7277 222.867 11.8553C219.43 11.1271 210.228 10.805 206.403 11.2789ZM259.276 26.6348C259.85 31.3613 262.306 37.365 265.83 42.6592C268.36 46.4586 273.308 51.6343 277.849 55.2296C279.723 56.7133 281.729 58.4662 282.307 59.1247C284.532 61.6582 285.41 65.295 285.427 72.0479L285.437 76.3079L288.963 74.4401C291.993 72.835 298.137 70.015 298.137 70.2293C298.137 70.2687 297.495 70.9898 296.71 71.832C295.924 72.6739 294.862 73.8924 294.349 74.5395L293.415 75.7163L295.389 74.6368C301.882 71.0861 313.028 69.2657 322.509 70.2076L325.043 70.4595L325.142 69.4333L325.24 68.4071L332.984 68.3147C342.11 68.2057 347.37 68.5722 351.418 69.5996C363.861 72.7572 371.691 82.2657 373.856 96.8475C374.485 101.085 374.485 109.45 373.856 113.688C372.114 125.419 366.604 133.912 357.919 138.248C352.816 140.796 348.798 141.668 341.128 141.891L335.333 142.059L337.052 143.952C339.517 146.668 341.583 150.194 342.744 153.668C343.575 156.156 343.779 157.317 343.907 160.276C344.146 165.827 343.08 170.21 340.414 174.638C339.814 175.634 339.361 176.473 339.406 176.504C339.452 176.535 341.956 176.453 344.972 176.322C361.108 175.623 373.189 171.92 384.953 164.065C401.535 152.994 411.164 138.09 414.834 117.812C415.577 113.71 415.649 112.597 415.664 104.958C415.681 95.6231 415.295 92.4531 413.214 84.8614C406.035 58.6669 384.365 39.4985 356.99 35.1285C350.495 34.0918 346.246 33.8768 331.9 33.8592C313.018 33.8359 286.562 33.3416 282.804 32.942C277.522 32.3801 273.946 31.6931 270.68 30.612C267.35 29.5103 262.63 27.2748 260.399 25.7427L259.055 24.8209L259.276 26.6348ZM17.502 25.8292C17.502 27.3126 18.5684 31.4608 19.6891 34.3365C22.655 41.9462 28.0081 48.7226 36.2419 55.29C40.4927 58.6802 41.0323 59.2238 41.9919 61.083C43.7184 64.427 43.6404 62.2712 43.7525 109.759C43.8191 137.835 43.7435 154.717 43.5428 156.728C43.1414 160.75 42.3255 162.937 40.5871 164.65C39.775 165.451 35.6835 168.082 30.3266 171.246L21.4172 176.51L23.4089 176.608C28.9649 176.879 106.49 176.401 109.189 176.078C113.766 175.531 120.188 174.301 123.592 173.318C132.406 170.774 141.141 166.16 148.801 160.002L149.54 159.408L149.187 156.034C148.763 151.966 148.745 147.441 149.14 143.69C149.3 142.164 149.401 140.886 149.364 140.848C149.327 140.812 148.411 142.033 147.328 143.562C146.245 145.091 145.293 146.276 145.212 146.196C144.932 145.915 146.715 127.86 147.323 124.821C149.064 116.123 153.282 108.569 160.728 100.819L162.621 98.8495L161.072 99.0678C160.22 99.1877 155.906 100.035 151.485 100.95C147.063 101.865 143.407 102.574 143.359 102.526C143.311 102.478 146.371 99.368 150.158 95.615C158.086 87.76 158.288 87.6092 168.907 81.6554C170.43 80.8015 170.438 81.0468 168.752 76.9252C159.954 55.4201 141.146 40.1629 117.776 35.5737C110.447 34.1345 106.031 33.9329 77.4389 33.7306C38.0425 33.4522 34.1462 33.0907 24.2645 28.8003C23.6394 28.529 21.9119 27.6071 20.4254 26.7519C18.9389 25.8964 17.6732 25.1967 17.6125 25.1967C17.5515 25.1967 17.502 25.4813 17.502 25.8292ZM204.583 46.647C202.861 49.4431 201.673 55.3287 201.69 60.973C201.706 65.8448 202.272 68.4002 203.544 69.3363C207.649 72.3573 210.164 75.1259 211.705 78.3191C213.011 81.0254 213.229 82.0473 212.167 80.4874C209.822 77.0395 207.227 75.0134 198.926 70.1482C190.202 65.0354 187.176 62.5329 184.53 58.2459C183.38 56.3819 183.373 56.3769 183.178 57.2786C183.071 57.7773 182.966 59.4196 182.946 60.9284C182.906 63.9584 183.463 66.6018 184.626 68.8971L185.368 70.361L183.597 69.9496C181.126 69.3763 176.288 68.8717 173.259 68.8717H170.708L172.231 69.8378C174.249 71.1171 177.632 74.5423 178.715 76.4014C179.227 77.2814 179.595 78.3851 179.614 79.0975C179.669 81.1821 178.567 82.0061 167.863 87.8852C164.104 89.9497 157.903 94.1481 158.189 94.4346C158.242 94.4869 158.981 94.3875 159.833 94.2134C162.615 93.6447 168.292 93.7448 170.182 94.3962C173.255 95.4549 175.166 98.1166 175.166 101.338C175.166 102.48 174.163 108.4 173.716 109.899C173.602 110.28 174.263 109.845 175.501 108.726C179.581 105.034 187.57 100.343 192.999 98.453C194.635 97.883 196.041 97.35 196.123 97.2682C196.305 97.0861 194.135 96.6162 190.723 96.0989C189.186 95.8659 188.203 95.5776 188.268 95.3781C188.471 94.7539 191.971 92.1384 194.101 91.0193C199.235 88.3216 206.548 86.8407 211.818 87.4317C214.486 87.7309 215.307 88.0763 213.351 88.0763C210.156 88.0763 203.415 89.8794 199.946 91.662C196.786 93.2854 196.799 93.2207 199.513 93.8169C200.859 94.1121 202.845 94.6241 203.928 94.9547L205.896 95.5553L203.928 96.6927C200.388 98.738 195.11 104.615 194.241 107.479L194.04 108.142L195.212 107.568C200.422 105.015 207.434 105.807 210.974 109.347C214.767 113.141 214.519 119.742 210.416 124.193L209.159 125.556H210.99C211.997 125.556 213.548 125.368 214.437 125.137C215.65 124.822 216.053 124.809 216.053 125.084C216.053 125.787 214.137 128.334 212.444 129.882L210.737 131.442H211.775C214.823 131.442 221.025 128.763 223.841 126.232C225.152 125.053 226.894 122.832 226.894 122.34C226.894 122.267 226.093 122.273 225.113 122.353C223.69 122.469 223.133 122.372 222.342 121.874C220.963 121.004 220.779 119.704 221.508 115.972L222.093 112.979L221.043 113.692C220.466 114.084 219.734 114.405 219.417 114.405C218.585 114.405 217.667 113.363 217.442 112.165C217.203 110.891 217.926 107.656 218.986 105.26C219.421 104.275 219.722 103.412 219.653 103.343C219.396 103.087 213.973 102.326 212.181 102.295L210.323 102.264L211.716 101.818C217.16 100.077 227.778 99.2026 231.648 100.177C234.527 100.902 234.995 102.945 233.135 106.668L232.253 108.433L235.331 108.635C240.954 109.003 243.957 110.131 245.621 112.499C246.507 113.758 246.564 114.012 246.564 116.711V119.584L247.338 119.109C248.904 118.148 251.751 115.12 253.07 113.011C253.815 111.819 254.874 109.519 255.422 107.9C256.252 105.452 256.442 104.36 256.556 101.396L256.693 97.8335L255.707 99.2986C254.481 101.121 251.838 103.254 250.805 103.254C250.645 103.254 250.427 102.707 250.32 102.039C250.093 100.615 248.998 99.1989 247.601 98.5227L246.609 98.042L246.552 94.9952C246.424 88.2011 243.249 82.8192 234.618 74.7678C220.634 61.7232 218.055 58.0759 216.432 49.0476L216.181 47.6537L215.477 49.5017C214.515 52.0252 214.194 53.9206 214.196 57.0658C214.199 62.0243 214.262 62.1179 222.713 69.8963C229.755 76.3785 232.663 79.8013 234.866 84.2044C236.087 86.6434 236.474 88.027 235.451 86.2946C233.397 82.8158 229.561 78.8088 220.153 70.3164C209.868 61.0319 205.754 54.6624 205.449 47.5493C205.403 46.4995 205.33 45.6406 205.284 45.6403C205.239 45.6403 204.924 46.0934 204.583 46.647ZM103.578 68.5632C122.25 70.2457 132.693 83.3637 132.723 105.174C132.749 123.332 125.425 135.646 111.967 140.074C107.44 141.563 105.865 141.725 94.3979 141.883L83.4791 142.033V105.142V68.2522L91.9199 68.2627C96.5624 68.2683 101.809 68.4036 103.578 68.5632ZM321.988 73.3247C318.99 74.4652 317.865 75.0395 318.581 75.0633C319.223 75.085 323.196 75.6494 324.234 75.8668L325.086 76.0452V74.1619C325.086 73.1264 324.981 72.2889 324.853 72.3009C324.726 72.313 323.436 72.7736 321.988 73.3247ZM304.747 76.009C300.968 76.7567 296.986 78.9569 291.64 83.2519C286.49 87.3905 285.762 87.9152 284.639 88.2996C281.943 89.2233 282.047 86.7075 284.875 82.5782C285.371 81.8543 285.646 81.2618 285.486 81.2618C285.042 81.2618 281.511 83.9213 279.087 86.0812C273.558 91.0103 267.871 99.1379 265.449 105.572C265.028 106.69 264.684 107.704 264.684 107.825C264.684 107.946 265.315 107.323 266.087 106.441C267.817 104.463 272.283 100.69 275.289 98.6664C284.453 92.4983 294.624 88.9557 302.938 89.0365L306.036 89.0666L302.009 89.7617C294.636 91.0344 287.72 93.9223 280.481 98.7507C275.452 102.106 271.701 105.284 266.524 110.576C262.718 114.467 257.299 120.803 257.595 121.015C257.661 121.062 258.621 121.546 259.728 122.09C260.845 122.64 263.663 124.664 266.06 126.638L270.378 130.195L273.049 125.01C277.973 115.452 283.659 107.133 288.665 102.163C292.85 98.0073 297.758 95.8913 303.9 95.5943C308.123 95.3899 311.153 95.9812 314.364 97.6365L316.567 98.772L318.042 97.7821C321.06 95.7551 328.504 93.4595 334.485 92.7108C337.453 92.3391 343.786 92.4327 345.065 92.8672C345.405 92.9828 344.778 92.2254 343.671 91.1837C339.448 87.2118 332.149 83.0568 326.567 81.4467C319.634 79.4475 313.85 79.6424 305.853 82.1442C301.588 83.4787 301.396 83.505 300.6 82.8607C300.053 82.4177 299.948 82.1117 300.116 81.4461C300.401 80.3099 302.554 78.2733 304.977 76.8478C307.001 75.6568 306.977 75.5679 304.747 76.009ZM228.223 87.5051C230.185 88.5546 234.638 93.8231 234.638 95.0937C234.638 95.6634 233.045 95.6293 231.608 95.0293C230.251 94.4625 228.952 93.2996 227.992 91.7933C227.322 90.742 225.965 87.4215 225.965 86.8333C225.965 86.534 226.965 86.8317 228.223 87.5051ZM167.194 101.488C158.862 108.716 152.82 118.895 151.804 127.415L151.6 129.118L152.464 128.139C154.782 125.512 156.831 124.598 157.519 125.884C157.917 126.627 157.777 127.432 156.556 131.442C153.05 142.958 152.888 155.532 156.115 165.824C157.231 169.384 159.955 174.884 162.045 177.796C163.726 180.14 167.435 184.499 167.604 184.331C167.65 184.284 167.42 183.275 167.091 182.088C166.312 179.279 166.299 176.936 167.059 176.249C168.162 175.251 168.835 175.61 171.183 178.446C175.904 184.152 179.314 187.035 184.768 189.934C194.717 195.223 205.877 196.702 217.717 194.301C233.81 191.037 247.007 180.219 256.862 162.212L258.414 159.375L257.135 158.158C255.49 156.593 250.696 152.513 245.823 148.532L241.984 145.396L240.59 147.479C238.059 151.26 236.42 153.241 233.098 156.531C229.406 160.19 226.287 162.468 222.5 164.273C218.835 166.021 216.488 166.567 212.801 166.531C202.624 166.431 194.4 158.971 192.046 147.704C191.451 144.853 191.458 138.687 192.061 135.425C193.445 127.936 197.117 120.638 202.825 114.032C203.997 112.677 204.881 111.494 204.791 111.403C204.701 111.313 203.738 111.168 202.651 111.081C199.481 110.826 197.969 111.449 192.357 115.325C189.163 117.531 187.368 118.597 187.309 118.325C187.203 117.831 189.239 106.483 189.592 105.601C189.792 105.105 189.525 105.18 187.997 106.049C181.565 109.705 178.903 111.877 173.232 118.097C170.5 121.092 168.134 123.593 167.974 123.654C167.805 123.719 167.755 123.201 167.854 122.415C167.948 121.673 168.177 118.626 168.365 115.644C168.552 112.663 169.044 108.446 169.458 106.272C170.794 99.2503 170.497 98.623 167.194 101.488ZM324.156 100.255C321.82 101.211 320.202 102.179 318.568 103.6L316.744 105.187L314.636 103.625C311.229 101.099 309.824 100.651 305.262 100.635C301.987 100.623 301.039 100.736 299.12 101.365C294.835 102.768 292.175 104.947 287.838 110.606L285.437 113.739V128.13V142.521L286.183 143.01C286.593 143.279 287.562 143.658 288.336 143.853C289.548 144.158 289.903 144.127 290.9 143.632C292.364 142.905 293.183 141.788 293.386 140.243C293.514 139.26 293.076 137.738 291.07 132.216C289.709 128.468 288.633 125.362 288.678 125.315C288.824 125.161 300.735 132.367 301.966 133.355L303.163 134.315L308.781 133.937C315.117 133.512 318.056 133.739 322.365 134.987C323.775 135.395 324.965 135.693 325.009 135.648C325.054 135.603 325.055 127.55 325.011 117.753L324.931 99.9389L324.156 100.255ZM224.111 106.375C223.72 108.114 223.909 109.932 224.695 112C225.165 113.237 227.034 115.17 230.195 117.687C234.487 121.105 235 121.985 235.545 126.86C235.935 130.35 236.349 131.858 237.447 133.791C238.747 136.079 240.465 137.91 243.866 140.632C251.698 146.901 260.061 153.964 261.544 155.563C262.979 157.111 264.01 158.786 264.787 160.835C265.407 162.468 265.442 163.049 265.363 170.57C265.269 179.585 265.434 180.749 267.368 184.705C268.911 187.861 272.003 190.933 275.418 192.702C276.807 193.422 278.102 194.011 278.298 194.011C278.492 194.011 278.221 193.476 277.695 192.821C275.356 189.909 274.52 184.222 275.818 180.05C276.381 178.24 278.417 174.807 278.926 174.807C279.052 174.807 279.244 175.663 279.353 176.709C279.462 177.755 279.952 179.772 280.441 181.191C283.299 189.483 289.656 195.57 297.785 197.802C301.251 198.753 308.643 198.749 312.472 197.795C315.695 196.991 319.563 195.435 322.245 193.863C324.067 192.795 328.183 189.255 328.183 188.756C328.183 188.63 327.452 188.725 326.557 188.968C324.477 189.533 320.504 189.298 317.342 188.424C314.66 187.683 310.837 185.884 310.018 184.979C309.458 184.361 309.467 184.359 311.618 184.571C312.807 184.688 315.06 184.628 316.625 184.438C325.728 183.331 333.25 178.314 336.873 170.935C338.511 167.598 339.024 165.38 339.024 161.642C339.024 157.816 338.51 155.676 336.716 152.04C332.882 144.271 324.427 139.165 314.577 138.67L311.302 138.506L313.496 139.583C316.249 140.935 318.791 143.385 319.995 145.845C320.816 147.524 320.904 148.003 320.904 150.801C320.904 153.635 320.828 154.036 320.012 155.508C318.674 157.923 316.593 159.82 313.78 161.19C310.102 162.981 305.203 163.765 301.509 163.154L300.389 162.969L301.759 161.599C307.752 155.607 306.256 142.502 298.97 137.161L297.79 136.295L298.041 137.198C298.528 138.951 298.269 142.035 297.497 143.664C295.914 147.004 292.889 148.95 289.309 148.93C285.705 148.911 284.445 148.125 273.357 138.991C259.515 127.587 258.615 126.871 257.323 126.226C255.636 125.383 253.789 125.01 250.126 124.77C244.989 124.434 244.394 123.938 243.344 119.125C242.156 113.683 241.103 112.808 235.021 112.206C228.911 111.601 226.033 109.816 224.874 105.913L224.499 104.648L224.111 106.375ZM310.094 144.665C310.458 146.605 310.379 154.734 309.983 156.049C309.78 156.721 309.678 157.334 309.754 157.411C309.831 157.487 310.503 157.317 311.248 157.033C312.993 156.367 315.137 154.526 315.678 153.23C316.257 151.845 316.212 149.267 315.586 147.947C314.942 146.591 313.214 144.884 311.701 144.11C310.05 143.265 309.845 143.336 310.094 144.665Z"/>
</mask>
<path fill-rule="evenodd" clip-rule="evenodd" d="M206.403 11.2789C192.674 12.98 180.618 21.843 175.962 33.6569C172.436 42.6035 172.71 53.9351 176.635 61.5268L177.789 63.7608L177.987 60.1986C178.163 57.0085 178.369 56.0541 179.964 51.0609C180.943 47.9944 181.958 44.747 182.219 43.8447C182.481 42.942 182.8 42.3148 182.929 42.4508C183.058 42.5864 184.291 45.4036 185.67 48.7112C188.61 55.7658 189.323 57.0602 191.36 59.0442C192.605 60.2572 196.24 62.9913 196.599 62.9845C196.651 62.9836 196.713 61.555 196.737 59.8096C196.793 55.7537 197.302 52.4009 198.397 48.8927C198.875 47.3594 199.356 45.0595 199.465 43.7818C199.574 42.504 199.879 40.692 200.142 39.755C202.215 32.3699 209.097 27.6567 216.064 28.8514C221.368 29.7612 225.043 33.1901 227.084 39.1355C227.548 40.4882 227.669 41.7328 227.669 45.1757C227.669 49.952 227.261 52.0429 225.661 55.4749L224.759 57.4112L226.561 59.6566C228.29 61.8106 232.671 66.2022 238.425 71.5501L241.128 74.0622L242.868 71.3897C246.325 66.0796 249.384 58.7682 250.597 52.9195C251.802 47.1125 251.399 40.2813 249.512 34.5069C245.596 22.5226 236.427 14.7277 222.867 11.8553C219.43 11.1271 210.228 10.805 206.403 11.2789ZM259.276 26.6348C259.85 31.3613 262.306 37.365 265.83 42.6592C268.36 46.4586 273.308 51.6343 277.849 55.2296C279.723 56.7133 281.729 58.4662 282.307 59.1247C284.532 61.6582 285.41 65.295 285.427 72.0479L285.437 76.3079L288.963 74.4401C291.993 72.835 298.137 70.015 298.137 70.2293C298.137 70.2687 297.495 70.9898 296.71 71.832C295.924 72.6739 294.862 73.8924 294.349 74.5395L293.415 75.7163L295.389 74.6368C301.882 71.0861 313.028 69.2657 322.509 70.2076L325.043 70.4595L325.142 69.4333L325.24 68.4071L332.984 68.3147C342.11 68.2057 347.37 68.5722 351.418 69.5996C363.861 72.7572 371.691 82.2657 373.856 96.8475C374.485 101.085 374.485 109.45 373.856 113.688C372.114 125.419 366.604 133.912 357.919 138.248C352.816 140.796 348.798 141.668 341.128 141.891L335.333 142.059L337.052 143.952C339.517 146.668 341.583 150.194 342.744 153.668C343.575 156.156 343.779 157.317 343.907 160.276C344.146 165.827 343.08 170.21 340.414 174.638C339.814 175.634 339.361 176.473 339.406 176.504C339.452 176.535 341.956 176.453 344.972 176.322C361.108 175.623 373.189 171.92 384.953 164.065C401.535 152.994 411.164 138.09 414.834 117.812C415.577 113.71 415.649 112.597 415.664 104.958C415.681 95.6231 415.295 92.4531 413.214 84.8614C406.035 58.6669 384.365 39.4985 356.99 35.1285C350.495 34.0918 346.246 33.8768 331.9 33.8592C313.018 33.8359 286.562 33.3416 282.804 32.942C277.522 32.3801 273.946 31.6931 270.68 30.612C267.35 29.5103 262.63 27.2748 260.399 25.7427L259.055 24.8209L259.276 26.6348ZM17.502 25.8292C17.502 27.3126 18.5684 31.4608 19.6891 34.3365C22.655 41.9462 28.0081 48.7226 36.2419 55.29C40.4927 58.6802 41.0323 59.2238 41.9919 61.083C43.7184 64.427 43.6404 62.2712 43.7525 109.759C43.8191 137.835 43.7435 154.717 43.5428 156.728C43.1414 160.75 42.3255 162.937 40.5871 164.65C39.775 165.451 35.6835 168.082 30.3266 171.246L21.4172 176.51L23.4089 176.608C28.9649 176.879 106.49 176.401 109.189 176.078C113.766 175.531 120.188 174.301 123.592 173.318C132.406 170.774 141.141 166.16 148.801 160.002L149.54 159.408L149.187 156.034C148.763 151.966 148.745 147.441 149.14 143.69C149.3 142.164 149.401 140.886 149.364 140.848C149.327 140.812 148.411 142.033 147.328 143.562C146.245 145.091 145.293 146.276 145.212 146.196C144.932 145.915 146.715 127.86 147.323 124.821C149.064 116.123 153.282 108.569 160.728 100.819L162.621 98.8495L161.072 99.0678C160.22 99.1877 155.906 100.035 151.485 100.95C147.063 101.865 143.407 102.574 143.359 102.526C143.311 102.478 146.371 99.368 150.158 95.615C158.086 87.76 158.288 87.6092 168.907 81.6554C170.43 80.8015 170.438 81.0468 168.752 76.9252C159.954 55.4201 141.146 40.1629 117.776 35.5737C110.447 34.1345 106.031 33.9329 77.4389 33.7306C38.0425 33.4522 34.1462 33.0907 24.2645 28.8003C23.6394 28.529 21.9119 27.6071 20.4254 26.7519C18.9389 25.8964 17.6732 25.1967 17.6125 25.1967C17.5515 25.1967 17.502 25.4813 17.502 25.8292ZM204.583 46.647C202.861 49.4431 201.673 55.3287 201.69 60.973C201.706 65.8448 202.272 68.4002 203.544 69.3363C207.649 72.3573 210.164 75.1259 211.705 78.3191C213.011 81.0254 213.229 82.0473 212.167 80.4874C209.822 77.0395 207.227 75.0134 198.926 70.1482C190.202 65.0354 187.176 62.5329 184.53 58.2459C183.38 56.3819 183.373 56.3769 183.178 57.2786C183.071 57.7773 182.966 59.4196 182.946 60.9284C182.906 63.9584 183.463 66.6018 184.626 68.8971L185.368 70.361L183.597 69.9496C181.126 69.3763 176.288 68.8717 173.259 68.8717H170.708L172.231 69.8378C174.249 71.1171 177.632 74.5423 178.715 76.4014C179.227 77.2814 179.595 78.3851 179.614 79.0975C179.669 81.1821 178.567 82.0061 167.863 87.8852C164.104 89.9497 157.903 94.1481 158.189 94.4346C158.242 94.4869 158.981 94.3875 159.833 94.2134C162.615 93.6447 168.292 93.7448 170.182 94.3962C173.255 95.4549 175.166 98.1166 175.166 101.338C175.166 102.48 174.163 108.4 173.716 109.899C173.602 110.28 174.263 109.845 175.501 108.726C179.581 105.034 187.57 100.343 192.999 98.453C194.635 97.883 196.041 97.35 196.123 97.2682C196.305 97.0861 194.135 96.6162 190.723 96.0989C189.186 95.8659 188.203 95.5776 188.268 95.3781C188.471 94.7539 191.971 92.1384 194.101 91.0193C199.235 88.3216 206.548 86.8407 211.818 87.4317C214.486 87.7309 215.307 88.0763 213.351 88.0763C210.156 88.0763 203.415 89.8794 199.946 91.662C196.786 93.2854 196.799 93.2207 199.513 93.8169C200.859 94.1121 202.845 94.6241 203.928 94.9547L205.896 95.5553L203.928 96.6927C200.388 98.738 195.11 104.615 194.241 107.479L194.04 108.142L195.212 107.568C200.422 105.015 207.434 105.807 210.974 109.347C214.767 113.141 214.519 119.742 210.416 124.193L209.159 125.556H210.99C211.997 125.556 213.548 125.368 214.437 125.137C215.65 124.822 216.053 124.809 216.053 125.084C216.053 125.787 214.137 128.334 212.444 129.882L210.737 131.442H211.775C214.823 131.442 221.025 128.763 223.841 126.232C225.152 125.053 226.894 122.832 226.894 122.34C226.894 122.267 226.093 122.273 225.113 122.353C223.69 122.469 223.133 122.372 222.342 121.874C220.963 121.004 220.779 119.704 221.508 115.972L222.093 112.979L221.043 113.692C220.466 114.084 219.734 114.405 219.417 114.405C218.585 114.405 217.667 113.363 217.442 112.165C217.203 110.891 217.926 107.656 218.986 105.26C219.421 104.275 219.722 103.412 219.653 103.343C219.396 103.087 213.973 102.326 212.181 102.295L210.323 102.264L211.716 101.818C217.16 100.077 227.778 99.2026 231.648 100.177C234.527 100.902 234.995 102.945 233.135 106.668L232.253 108.433L235.331 108.635C240.954 109.003 243.957 110.131 245.621 112.499C246.507 113.758 246.564 114.012 246.564 116.711V119.584L247.338 119.109C248.904 118.148 251.751 115.12 253.07 113.011C253.815 111.819 254.874 109.519 255.422 107.9C256.252 105.452 256.442 104.36 256.556 101.396L256.693 97.8335L255.707 99.2986C254.481 101.121 251.838 103.254 250.805 103.254C250.645 103.254 250.427 102.707 250.32 102.039C250.093 100.615 248.998 99.1989 247.601 98.5227L246.609 98.042L246.552 94.9952C246.424 88.2011 243.249 82.8192 234.618 74.7678C220.634 61.7232 218.055 58.0759 216.432 49.0476L216.181 47.6537L215.477 49.5017C214.515 52.0252 214.194 53.9206 214.196 57.0658C214.199 62.0243 214.262 62.1179 222.713 69.8963C229.755 76.3785 232.663 79.8013 234.866 84.2044C236.087 86.6434 236.474 88.027 235.451 86.2946C233.397 82.8158 229.561 78.8088 220.153 70.3164C209.868 61.0319 205.754 54.6624 205.449 47.5493C205.403 46.4995 205.33 45.6406 205.284 45.6403C205.239 45.6403 204.924 46.0934 204.583 46.647ZM103.578 68.5632C122.25 70.2457 132.693 83.3637 132.723 105.174C132.749 123.332 125.425 135.646 111.967 140.074C107.44 141.563 105.865 141.725 94.3979 141.883L83.4791 142.033V105.142V68.2522L91.9199 68.2627C96.5624 68.2683 101.809 68.4036 103.578 68.5632ZM321.988 73.3247C318.99 74.4652 317.865 75.0395 318.581 75.0633C319.223 75.085 323.196 75.6494 324.234 75.8668L325.086 76.0452V74.1619C325.086 73.1264 324.981 72.2889 324.853 72.3009C324.726 72.313 323.436 72.7736 321.988 73.3247ZM304.747 76.009C300.968 76.7567 296.986 78.9569 291.64 83.2519C286.49 87.3905 285.762 87.9152 284.639 88.2996C281.943 89.2233 282.047 86.7075 284.875 82.5782C285.371 81.8543 285.646 81.2618 285.486 81.2618C285.042 81.2618 281.511 83.9213 279.087 86.0812C273.558 91.0103 267.871 99.1379 265.449 105.572C265.028 106.69 264.684 107.704 264.684 107.825C264.684 107.946 265.315 107.323 266.087 106.441C267.817 104.463 272.283 100.69 275.289 98.6664C284.453 92.4983 294.624 88.9557 302.938 89.0365L306.036 89.0666L302.009 89.7617C294.636 91.0344 287.72 93.9223 280.481 98.7507C275.452 102.106 271.701 105.284 266.524 110.576C262.718 114.467 257.299 120.803 257.595 121.015C257.661 121.062 258.621 121.546 259.728 122.09C260.845 122.64 263.663 124.664 266.06 126.638L270.378 130.195L273.049 125.01C277.973 115.452 283.659 107.133 288.665 102.163C292.85 98.0073 297.758 95.8913 303.9 95.5943C308.123 95.3899 311.153 95.9812 314.364 97.6365L316.567 98.772L318.042 97.7821C321.06 95.7551 328.504 93.4595 334.485 92.7108C337.453 92.3391 343.786 92.4327 345.065 92.8672C345.405 92.9828 344.778 92.2254 343.671 91.1837C339.448 87.2118 332.149 83.0568 326.567 81.4467C319.634 79.4475 313.85 79.6424 305.853 82.1442C301.588 83.4787 301.396 83.505 300.6 82.8607C300.053 82.4177 299.948 82.1117 300.116 81.4461C300.401 80.3099 302.554 78.2733 304.977 76.8478C307.001 75.6568 306.977 75.5679 304.747 76.009ZM228.223 87.5051C230.185 88.5546 234.638 93.8231 234.638 95.0937C234.638 95.6634 233.045 95.6293 231.608 95.0293C230.251 94.4625 228.952 93.2996 227.992 91.7933C227.322 90.742 225.965 87.4215 225.965 86.8333C225.965 86.534 226.965 86.8317 228.223 87.5051ZM167.194 101.488C158.862 108.716 152.82 118.895 151.804 127.415L151.6 129.118L152.464 128.139C154.782 125.512 156.831 124.598 157.519 125.884C157.917 126.627 157.777 127.432 156.556 131.442C153.05 142.958 152.888 155.532 156.115 165.824C157.231 169.384 159.955 174.884 162.045 177.796C163.726 180.14 167.435 184.499 167.604 184.331C167.65 184.284 167.42 183.275 167.091 182.088C166.312 179.279 166.299 176.936 167.059 176.249C168.162 175.251 168.835 175.61 171.183 178.446C175.904 184.152 179.314 187.035 184.768 189.934C194.717 195.223 205.877 196.702 217.717 194.301C233.81 191.037 247.007 180.219 256.862 162.212L258.414 159.375L257.135 158.158C255.49 156.593 250.696 152.513 245.823 148.532L241.984 145.396L240.59 147.479C238.059 151.26 236.42 153.241 233.098 156.531C229.406 160.19 226.287 162.468 222.5 164.273C218.835 166.021 216.488 166.567 212.801 166.531C202.624 166.431 194.4 158.971 192.046 147.704C191.451 144.853 191.458 138.687 192.061 135.425C193.445 127.936 197.117 120.638 202.825 114.032C203.997 112.677 204.881 111.494 204.791 111.403C204.701 111.313 203.738 111.168 202.651 111.081C199.481 110.826 197.969 111.449 192.357 115.325C189.163 117.531 187.368 118.597 187.309 118.325C187.203 117.831 189.239 106.483 189.592 105.601C189.792 105.105 189.525 105.18 187.997 106.049C181.565 109.705 178.903 111.877 173.232 118.097C170.5 121.092 168.134 123.593 167.974 123.654C167.805 123.719 167.755 123.201 167.854 122.415C167.948 121.673 168.177 118.626 168.365 115.644C168.552 112.663 169.044 108.446 169.458 106.272C170.794 99.2503 170.497 98.623 167.194 101.488ZM324.156 100.255C321.82 101.211 320.202 102.179 318.568 103.6L316.744 105.187L314.636 103.625C311.229 101.099 309.824 100.651 305.262 100.635C301.987 100.623 301.039 100.736 299.12 101.365C294.835 102.768 292.175 104.947 287.838 110.606L285.437 113.739V128.13V142.521L286.183 143.01C286.593 143.279 287.562 143.658 288.336 143.853C289.548 144.158 289.903 144.127 290.9 143.632C292.364 142.905 293.183 141.788 293.386 140.243C293.514 139.26 293.076 137.738 291.07 132.216C289.709 128.468 288.633 125.362 288.678 125.315C288.824 125.161 300.735 132.367 301.966 133.355L303.163 134.315L308.781 133.937C315.117 133.512 318.056 133.739 322.365 134.987C323.775 135.395 324.965 135.693 325.009 135.648C325.054 135.603 325.055 127.55 325.011 117.753L324.931 99.9389L324.156 100.255ZM224.111 106.375C223.72 108.114 223.909 109.932 224.695 112C225.165 113.237 227.034 115.17 230.195 117.687C234.487 121.105 235 121.985 235.545 126.86C235.935 130.35 236.349 131.858 237.447 133.791C238.747 136.079 240.465 137.91 243.866 140.632C251.698 146.901 260.061 153.964 261.544 155.563C262.979 157.111 264.01 158.786 264.787 160.835C265.407 162.468 265.442 163.049 265.363 170.57C265.269 179.585 265.434 180.749 267.368 184.705C268.911 187.861 272.003 190.933 275.418 192.702C276.807 193.422 278.102 194.011 278.298 194.011C278.492 194.011 278.221 193.476 277.695 192.821C275.356 189.909 274.52 184.222 275.818 180.05C276.381 178.24 278.417 174.807 278.926 174.807C279.052 174.807 279.244 175.663 279.353 176.709C279.462 177.755 279.952 179.772 280.441 181.191C283.299 189.483 289.656 195.57 297.785 197.802C301.251 198.753 308.643 198.749 312.472 197.795C315.695 196.991 319.563 195.435 322.245 193.863C324.067 192.795 328.183 189.255 328.183 188.756C328.183 188.63 327.452 188.725 326.557 188.968C324.477 189.533 320.504 189.298 317.342 188.424C314.66 187.683 310.837 185.884 310.018 184.979C309.458 184.361 309.467 184.359 311.618 184.571C312.807 184.688 315.06 184.628 316.625 184.438C325.728 183.331 333.25 178.314 336.873 170.935C338.511 167.598 339.024 165.38 339.024 161.642C339.024 157.816 338.51 155.676 336.716 152.04C332.882 144.271 324.427 139.165 314.577 138.67L311.302 138.506L313.496 139.583C316.249 140.935 318.791 143.385 319.995 145.845C320.816 147.524 320.904 148.003 320.904 150.801C320.904 153.635 320.828 154.036 320.012 155.508C318.674 157.923 316.593 159.82 313.78 161.19C310.102 162.981 305.203 163.765 301.509 163.154L300.389 162.969L301.759 161.599C307.752 155.607 306.256 142.502 298.97 137.161L297.79 136.295L298.041 137.198C298.528 138.951 298.269 142.035 297.497 143.664C295.914 147.004 292.889 148.95 289.309 148.93C285.705 148.911 284.445 148.125 273.357 138.991C259.515 127.587 258.615 126.871 257.323 126.226C255.636 125.383 253.789 125.01 250.126 124.77C244.989 124.434 244.394 123.938 243.344 119.125C242.156 113.683 241.103 112.808 235.021 112.206C228.911 111.601 226.033 109.816 224.874 105.913L224.499 104.648L224.111 106.375ZM310.094 144.665C310.458 146.605 310.379 154.734 309.983 156.049C309.78 156.721 309.678 157.334 309.754 157.411C309.831 157.487 310.503 157.317 311.248 157.033C312.993 156.367 315.137 154.526 315.678 153.23C316.257 151.845 316.212 149.267 315.586 147.947C314.942 146.591 313.214 144.884 311.701 144.11C310.05 143.265 309.845 143.336 310.094 144.665Z" fill="url(#paint0_linear)"/>
<path fill-rule="evenodd" clip-rule="evenodd" d="M206.403 11.2789C192.674 12.98 180.618 21.843 175.962 33.6569C172.436 42.6035 172.71 53.9351 176.635 61.5268L177.789 63.7608L177.987 60.1986C178.163 57.0085 178.369 56.0541 179.964 51.0609C180.943 47.9944 181.958 44.747 182.219 43.8447C182.481 42.942 182.8 42.3148 182.929 42.4508C183.058 42.5864 184.291 45.4036 185.67 48.7112C188.61 55.7658 189.323 57.0602 191.36 59.0442C192.605 60.2572 196.24 62.9913 196.599 62.9845C196.651 62.9836 196.713 61.555 196.737 59.8096C196.793 55.7537 197.302 52.4009 198.397 48.8927C198.875 47.3594 199.356 45.0595 199.465 43.7818C199.574 42.504 199.879 40.692 200.142 39.755C202.215 32.3699 209.097 27.6567 216.064 28.8514C221.368 29.7612 225.043 33.1901 227.084 39.1355C227.548 40.4882 227.669 41.7328 227.669 45.1757C227.669 49.952 227.261 52.0429 225.661 55.4749L224.759 57.4112L226.561 59.6566C228.29 61.8106 232.671 66.2022 238.425 71.5501L241.128 74.0622L242.868 71.3897C246.325 66.0796 249.384 58.7682 250.597 52.9195C251.802 47.1125 251.399 40.2813 249.512 34.5069C245.596 22.5226 236.427 14.7277 222.867 11.8553C219.43 11.1271 210.228 10.805 206.403 11.2789ZM259.276 26.6348C259.85 31.3613 262.306 37.365 265.83 42.6592C268.36 46.4586 273.308 51.6343 277.849 55.2296C279.723 56.7133 281.729 58.4662 282.307 59.1247C284.532 61.6582 285.41 65.295 285.427 72.0479L285.437 76.3079L288.963 74.4401C291.993 72.835 298.137 70.015 298.137 70.2293C298.137 70.2687 297.495 70.9898 296.71 71.832C295.924 72.6739 294.862 73.8924 294.349 74.5395L293.415 75.7163L295.389 74.6368C301.882 71.0861 313.028 69.2657 322.509 70.2076L325.043 70.4595L325.142 69.4333L325.24 68.4071L332.984 68.3147C342.11 68.2057 347.37 68.5722 351.418 69.5996C363.861 72.7572 371.691 82.2657 373.856 96.8475C374.485 101.085 374.485 109.45 373.856 113.688C372.114 125.419 366.604 133.912 357.919 138.248C352.816 140.796 348.798 141.668 341.128 141.891L335.333 142.059L337.052 143.952C339.517 146.668 341.583 150.194 342.744 153.668C343.575 156.156 343.779 157.317 343.907 160.276C344.146 165.827 343.08 170.21 340.414 174.638C339.814 175.634 339.361 176.473 339.406 176.504C339.452 176.535 341.956 176.453 344.972 176.322C361.108 175.623 373.189 171.92 384.953 164.065C401.535 152.994 411.164 138.09 414.834 117.812C415.577 113.71 415.649 112.597 415.664 104.958C415.681 95.6231 415.295 92.4531 413.214 84.8614C406.035 58.6669 384.365 39.4985 356.99 35.1285C350.495 34.0918 346.246 33.8768 331.9 33.8592C313.018 33.8359 286.562 33.3416 282.804 32.942C277.522 32.3801 273.946 31.6931 270.68 30.612C267.35 29.5103 262.63 27.2748 260.399 25.7427L259.055 24.8209L259.276 26.6348ZM17.502 25.8292C17.502 27.3126 18.5684 31.4608 19.6891 34.3365C22.655 41.9462 28.0081 48.7226 36.2419 55.29C40.4927 58.6802 41.0323 59.2238 41.9919 61.083C43.7184 64.427 43.6404 62.2712 43.7525 109.759C43.8191 137.835 43.7435 154.717 43.5428 156.728C43.1414 160.75 42.3255 162.937 40.5871 164.65C39.775 165.451 35.6835 168.082 30.3266 171.246L21.4172 176.51L23.4089 176.608C28.9649 176.879 106.49 176.401 109.189 176.078C113.766 175.531 120.188 174.301 123.592 173.318C132.406 170.774 141.141 166.16 148.801 160.002L149.54 159.408L149.187 156.034C148.763 151.966 148.745 147.441 149.14 143.69C149.3 142.164 149.401 140.886 149.364 140.848C149.327 140.812 148.411 142.033 147.328 143.562C146.245 145.091 145.293 146.276 145.212 146.196C144.932 145.915 146.715 127.86 147.323 124.821C149.064 116.123 153.282 108.569 160.728 100.819L162.621 98.8495L161.072 99.0678C160.22 99.1877 155.906 100.035 151.485 100.95C147.063 101.865 143.407 102.574 143.359 102.526C143.311 102.478 146.371 99.368 150.158 95.615C158.086 87.76 158.288 87.6092 168.907 81.6554C170.43 80.8015 170.438 81.0468 168.752 76.9252C159.954 55.4201 141.146 40.1629 117.776 35.5737C110.447 34.1345 106.031 33.9329 77.4389 33.7306C38.0425 33.4522 34.1462 33.0907 24.2645 28.8003C23.6394 28.529 21.9119 27.6071 20.4254 26.7519C18.9389 25.8964 17.6732 25.1967 17.6125 25.1967C17.5515 25.1967 17.502 25.4813 17.502 25.8292ZM204.583 46.647C202.861 49.4431 201.673 55.3287 201.69 60.973C201.706 65.8448 202.272 68.4002 203.544 69.3363C207.649 72.3573 210.164 75.1259 211.705 78.3191C213.011 81.0254 213.229 82.0473 212.167 80.4874C209.822 77.0395 207.227 75.0134 198.926 70.1482C190.202 65.0354 187.176 62.5329 184.53 58.2459C183.38 56.3819 183.373 56.3769 183.178 57.2786C183.071 57.7773 182.966 59.4196 182.946 60.9284C182.906 63.9584 183.463 66.6018 184.626 68.8971L185.368 70.361L183.597 69.9496C181.126 69.3763 176.288 68.8717 173.259 68.8717H170.708L172.231 69.8378C174.249 71.1171 177.632 74.5423 178.715 76.4014C179.227 77.2814 179.595 78.3851 179.614 79.0975C179.669 81.1821 178.567 82.0061 167.863 87.8852C164.104 89.9497 157.903 94.1481 158.189 94.4346C158.242 94.4869 158.981 94.3875 159.833 94.2134C162.615 93.6447 168.292 93.7448 170.182 94.3962C173.255 95.4549 175.166 98.1166 175.166 101.338C175.166 102.48 174.163 108.4 173.716 109.899C173.602 110.28 174.263 109.845 175.501 108.726C179.581 105.034 187.57 100.343 192.999 98.453C194.635 97.883 196.041 97.35 196.123 97.2682C196.305 97.0861 194.135 96.6162 190.723 96.0989C189.186 95.8659 188.203 95.5776 188.268 95.3781C188.471 94.7539 191.971 92.1384 194.101 91.0193C199.235 88.3216 206.548 86.8407 211.818 87.4317C214.486 87.7309 215.307 88.0763 213.351 88.0763C210.156 88.0763 203.415 89.8794 199.946 91.662C196.786 93.2854 196.799 93.2207 199.513 93.8169C200.859 94.1121 202.845 94.6241 203.928 94.9547L205.896 95.5553L203.928 96.6927C200.388 98.738 195.11 104.615 194.241 107.479L194.04 108.142L195.212 107.568C200.422 105.015 207.434 105.807 210.974 109.347C214.767 113.141 214.519 119.742 210.416 124.193L209.159 125.556H210.99C211.997 125.556 213.548 125.368 214.437 125.137C215.65 124.822 216.053 124.809 216.053 125.084C216.053 125.787 214.137 128.334 212.444 129.882L210.737 131.442H211.775C214.823 131.442 221.025 128.763 223.841 126.232C225.152 125.053 226.894 122.832 226.894 122.34C226.894 122.267 226.093 122.273 225.113 122.353C223.69 122.469 223.133 122.372 222.342 121.874C220.963 121.004 220.779 119.704 221.508 115.972L222.093 112.979L221.043 113.692C220.466 114.084 219.734 114.405 219.417 114.405C218.585 114.405 217.667 113.363 217.442 112.165C217.203 110.891 217.926 107.656 218.986 105.26C219.421 104.275 219.722 103.412 219.653 103.343C219.396 103.087 213.973 102.326 212.181 102.295L210.323 102.264L211.716 101.818C217.16 100.077 227.778 99.2026 231.648 100.177C234.527 100.902 234.995 102.945 233.135 106.668L232.253 108.433L235.331 108.635C240.954 109.003 243.957 110.131 245.621 112.499C246.507 113.758 246.564 114.012 246.564 116.711V119.584L247.338 119.109C248.904 118.148 251.751 115.12 253.07 113.011C253.815 111.819 254.874 109.519 255.422 107.9C256.252 105.452 256.442 104.36 256.556 101.396L256.693 97.8335L255.707 99.2986C254.481 101.121 251.838 103.254 250.805 103.254C250.645 103.254 250.427 102.707 250.32 102.039C250.093 100.615 248.998 99.1989 247.601 98.5227L246.609 98.042L246.552 94.9952C246.424 88.2011 243.249 82.8192 234.618 74.7678C220.634 61.7232 218.055 58.0759 216.432 49.0476L216.181 47.6537L215.477 49.5017C214.515 52.0252 214.194 53.9206 214.196 57.0658C214.199 62.0243 214.262 62.1179 222.713 69.8963C229.755 76.3785 232.663 79.8013 234.866 84.2044C236.087 86.6434 236.474 88.027 235.451 86.2946C233.397 82.8158 229.561 78.8088 220.153 70.3164C209.868 61.0319 205.754 54.6624 205.449 47.5493C205.403 46.4995 205.33 45.6406 205.284 45.6403C205.239 45.6403 204.924 46.0934 204.583 46.647ZM103.578 68.5632C122.25 70.2457 132.693 83.3637 132.723 105.174C132.749 123.332 125.425 135.646 111.967 140.074C107.44 141.563 105.865 141.725 94.3979 141.883L83.4791 142.033V105.142V68.2522L91.9199 68.2627C96.5624 68.2683 101.809 68.4036 103.578 68.5632ZM321.988 73.3247C318.99 74.4652 317.865 75.0395 318.581 75.0633C319.223 75.085 323.196 75.6494 324.234 75.8668L325.086 76.0452V74.1619C325.086 73.1264 324.981 72.2889 324.853 72.3009C324.726 72.313 323.436 72.7736 321.988 73.3247ZM304.747 76.009C300.968 76.7567 296.986 78.9569 291.64 83.2519C286.49 87.3905 285.762 87.9152 284.639 88.2996C281.943 89.2233 282.047 86.7075 284.875 82.5782C285.371 81.8543 285.646 81.2618 285.486 81.2618C285.042 81.2618 281.511 83.9213 279.087 86.0812C273.558 91.0103 267.871 99.1379 265.449 105.572C265.028 106.69 264.684 107.704 264.684 107.825C264.684 107.946 265.315 107.323 266.087 106.441C267.817 104.463 272.283 100.69 275.289 98.6664C284.453 92.4983 294.624 88.9557 302.938 89.0365L306.036 89.0666L302.009 89.7617C294.636 91.0344 287.72 93.9223 280.481 98.7507C275.452 102.106 271.701 105.284 266.524 110.576C262.718 114.467 257.299 120.803 257.595 121.015C257.661 121.062 258.621 121.546 259.728 122.09C260.845 122.64 263.663 124.664 266.06 126.638L270.378 130.195L273.049 125.01C277.973 115.452 283.659 107.133 288.665 102.163C292.85 98.0073 297.758 95.8913 303.9 95.5943C308.123 95.3899 311.153 95.9812 314.364 97.6365L316.567 98.772L318.042 97.7821C321.06 95.7551 328.504 93.4595 334.485 92.7108C337.453 92.3391 343.786 92.4327 345.065 92.8672C345.405 92.9828 344.778 92.2254 343.671 91.1837C339.448 87.2118 332.149 83.0568 326.567 81.4467C319.634 79.4475 313.85 79.6424 305.853 82.1442C301.588 83.4787 301.396 83.505 300.6 82.8607C300.053 82.4177 299.948 82.1117 300.116 81.4461C300.401 80.3099 302.554 78.2733 304.977 76.8478C307.001 75.6568 306.977 75.5679 304.747 76.009ZM228.223 87.5051C230.185 88.5546 234.638 93.8231 234.638 95.0937C234.638 95.6634 233.045 95.6293 231.608 95.0293C230.251 94.4625 228.952 93.2996 227.992 91.7933C227.322 90.742 225.965 87.4215 225.965 86.8333C225.965 86.534 226.965 86.8317 228.223 87.5051ZM167.194 101.488C158.862 108.716 152.82 118.895 151.804 127.415L151.6 129.118L152.464 128.139C154.782 125.512 156.831 124.598 157.519 125.884C157.917 126.627 157.777 127.432 156.556 131.442C153.05 142.958 152.888 155.532 156.115 165.824C157.231 169.384 159.955 174.884 162.045 177.796C163.726 180.14 167.435 184.499 167.604 184.331C167.65 184.284 167.42 183.275 167.091 182.088C166.312 179.279 166.299 176.936 167.059 176.249C168.162 175.251 168.835 175.61 171.183 178.446C175.904 184.152 179.314 187.035 184.768 189.934C194.717 195.223 205.877 196.702 217.717 194.301C233.81 191.037 247.007 180.219 256.862 162.212L258.414 159.375L257.135 158.158C255.49 156.593 250.696 152.513 245.823 148.532L241.984 145.396L240.59 147.479C238.059 151.26 236.42 153.241 233.098 156.531C229.406 160.19 226.287 162.468 222.5 164.273C218.835 166.021 216.488 166.567 212.801 166.531C202.624 166.431 194.4 158.971 192.046 147.704C191.451 144.853 191.458 138.687 192.061 135.425C193.445 127.936 197.117 120.638 202.825 114.032C203.997 112.677 204.881 111.494 204.791 111.403C204.701 111.313 203.738 111.168 202.651 111.081C199.481 110.826 197.969 111.449 192.357 115.325C189.163 117.531 187.368 118.597 187.309 118.325C187.203 117.831 189.239 106.483 189.592 105.601C189.792 105.105 189.525 105.18 187.997 106.049C181.565 109.705 178.903 111.877 173.232 118.097C170.5 121.092 168.134 123.593 167.974 123.654C167.805 123.719 167.755 123.201 167.854 122.415C167.948 121.673 168.177 118.626 168.365 115.644C168.552 112.663 169.044 108.446 169.458 106.272C170.794 99.2503 170.497 98.623 167.194 101.488ZM324.156 100.255C321.82 101.211 320.202 102.179 318.568 103.6L316.744 105.187L314.636 103.625C311.229 101.099 309.824 100.651 305.262 100.635C301.987 100.623 301.039 100.736 299.12 101.365C294.835 102.768 292.175 104.947 287.838 110.606L285.437 113.739V128.13V142.521L286.183 143.01C286.593 143.279 287.562 143.658 288.336 143.853C289.548 144.158 289.903 144.127 290.9 143.632C292.364 142.905 293.183 141.788 293.386 140.243C293.514 139.26 293.076 137.738 291.07 132.216C289.709 128.468 288.633 125.362 288.678 125.315C288.824 125.161 300.735 132.367 301.966 133.355L303.163 134.315L308.781 133.937C315.117 133.512 318.056 133.739 322.365 134.987C323.775 135.395 324.965 135.693 325.009 135.648C325.054 135.603 325.055 127.55 325.011 117.753L324.931 99.9389L324.156 100.255ZM224.111 106.375C223.72 108.114 223.909 109.932 224.695 112C225.165 113.237 227.034 115.17 230.195 117.687C234.487 121.105 235 121.985 235.545 126.86C235.935 130.35 236.349 131.858 237.447 133.791C238.747 136.079 240.465 137.91 243.866 140.632C251.698 146.901 260.061 153.964 261.544 155.563C262.979 157.111 264.01 158.786 264.787 160.835C265.407 162.468 265.442 163.049 265.363 170.57C265.269 179.585 265.434 180.749 267.368 184.705C268.911 187.861 272.003 190.933 275.418 192.702C276.807 193.422 278.102 194.011 278.298 194.011C278.492 194.011 278.221 193.476 277.695 192.821C275.356 189.909 274.52 184.222 275.818 180.05C276.381 178.24 278.417 174.807 278.926 174.807C279.052 174.807 279.244 175.663 279.353 176.709C279.462 177.755 279.952 179.772 280.441 181.191C283.299 189.483 289.656 195.57 297.785 197.802C301.251 198.753 308.643 198.749 312.472 197.795C315.695 196.991 319.563 195.435 322.245 193.863C324.067 192.795 328.183 189.255 328.183 188.756C328.183 188.63 327.452 188.725 326.557 188.968C324.477 189.533 320.504 189.298 317.342 188.424C314.66 187.683 310.837 185.884 310.018 184.979C309.458 184.361 309.467 184.359 311.618 184.571C312.807 184.688 315.06 184.628 316.625 184.438C325.728 183.331 333.25 178.314 336.873 170.935C338.511 167.598 339.024 165.38 339.024 161.642C339.024 157.816 338.51 155.676 336.716 152.04C332.882 144.271 324.427 139.165 314.577 138.67L311.302 138.506L313.496 139.583C316.249 140.935 318.791 143.385 319.995 145.845C320.816 147.524 320.904 148.003 320.904 150.801C320.904 153.635 320.828 154.036 320.012 155.508C318.674 157.923 316.593 159.82 313.78 161.19C310.102 162.981 305.203 163.765 301.509 163.154L300.389 162.969L301.759 161.599C307.752 155.607 306.256 142.502 298.97 137.161L297.79 136.295L298.041 137.198C298.528 138.951 298.269 142.035 297.497 143.664C295.914 147.004 292.889 148.95 289.309 148.93C285.705 148.911 284.445 148.125 273.357 138.991C259.515 127.587 258.615 126.871 257.323 126.226C255.636 125.383 253.789 125.01 250.126 124.77C244.989 124.434 244.394 123.938 243.344 119.125C242.156 113.683 241.103 112.808 235.021 112.206C228.911 111.601 226.033 109.816 224.874 105.913L224.499 104.648L224.111 106.375ZM310.094 144.665C310.458 146.605 310.379 154.734 309.983 156.049C309.78 156.721 309.678 157.334 309.754 157.411C309.831 157.487 310.503 157.317 311.248 157.033C312.993 156.367 315.137 154.526 315.678 153.23C316.257 151.845 316.212 149.267 315.586 147.947C314.942 146.591 313.214 144.884 311.701 144.11C310.05 143.265 309.845 143.336 310.094 144.665Z" stroke="#FFF6DB" stroke-width="8" mask="url(#path-1-outside-1)"/>
</g>
<g filter="url(#filter1_ddd)">
<path d="M83.8461 231.423C83.516 231.485 83.1206 231.516 82.66 231.516C82.1917 231.516 81.7925 231.485 81.4624 231.423V222.982C81.4624 222.576 81.3894 222.276 81.2436 222.084C81.0977 221.885 80.8367 221.785 80.4605 221.785H80.2072C80.1381 221.516 80.1035 221.24 80.1035 220.956C80.1035 220.664 80.1381 220.372 80.2072 220.081C80.4989 220.042 80.7714 220.015 81.0248 220C81.2858 219.985 81.5008 219.977 81.6696 219.977H81.9806C82.5564 219.977 83.0093 220.161 83.3394 220.53C83.6772 220.89 83.8461 221.389 83.8461 222.027V231.423ZM80.7599 216.983C80.7599 216.591 80.829 216.25 80.9672 215.958C81.1054 215.873 81.2935 215.804 81.5315 215.751C81.7695 215.697 82.0036 215.67 82.2339 215.67C82.4489 215.67 82.683 215.697 82.9364 215.751C83.1897 215.804 83.3778 215.873 83.5006 215.958C83.5697 216.088 83.6196 216.253 83.6503 216.453C83.6887 216.645 83.7079 216.822 83.7079 216.983C83.7079 217.367 83.6388 217.708 83.5006 218.008C83.3855 218.092 83.1974 218.161 82.9364 218.215C82.683 218.261 82.4489 218.284 82.2339 218.284C82.0036 218.284 81.7656 218.261 81.5199 218.215C81.282 218.161 81.0977 218.092 80.9672 218.008C80.829 217.708 80.7599 217.367 80.7599 216.983Z" fill="#FFF6DB"/>
<path d="M96.4785 228.994C96.4785 229.393 96.5053 229.773 96.5591 230.134C96.6128 230.487 96.7126 230.798 96.8585 231.066C96.6896 231.212 96.4708 231.331 96.2021 231.423C95.9334 231.523 95.6532 231.573 95.3615 231.573C94.9008 231.573 94.5745 231.447 94.3826 231.193C94.1984 230.94 94.1062 230.564 94.1062 230.065V224.203C94.1062 223.435 94.0064 222.875 93.8068 222.522C93.6072 222.169 93.2272 221.992 92.6668 221.992C92.2138 221.992 91.7225 222.119 91.1928 222.372C90.663 222.625 90.1947 222.971 89.7879 223.409V231.423C89.4654 231.485 89.07 231.516 88.6017 231.516C88.1334 231.516 87.7342 231.485 87.4041 231.423V220.104L87.5538 219.954H88.452C88.8973 219.954 89.2197 220.081 89.4194 220.334C89.6266 220.58 89.7456 220.925 89.7763 221.37C90.2677 220.925 90.8281 220.56 91.4576 220.276C92.0872 219.992 92.7435 219.85 93.4268 219.85C94.1485 219.85 94.7319 220.019 95.1772 220.357C95.6301 220.687 95.9603 221.14 96.1675 221.716C96.3748 222.284 96.4785 222.921 96.4785 223.627V228.994Z" fill="#FFF6DB"/>
<path d="M107.778 231.423C107.586 231.462 107.383 231.485 107.168 231.493C106.961 231.508 106.757 231.516 106.558 231.516C106.366 231.516 106.158 231.508 105.936 231.493C105.721 231.485 105.517 231.462 105.325 231.423V215.831L105.475 215.693H114.596C114.688 215.985 114.734 216.307 114.734 216.66C114.734 217.42 114.269 217.8 113.34 217.8H109.955C109.149 217.8 108.419 217.789 107.767 217.766C107.767 218.226 107.767 218.683 107.767 219.136C107.774 219.589 107.778 220.038 107.778 220.484V222.499C107.955 222.491 108.124 222.487 108.285 222.487C108.454 222.487 108.611 222.487 108.757 222.487H113.375C113.413 222.641 113.444 222.817 113.467 223.017C113.49 223.209 113.502 223.37 113.502 223.501C113.502 223.639 113.49 223.804 113.467 223.996C113.444 224.188 113.413 224.368 113.375 224.537H108.757C108.611 224.537 108.454 224.537 108.285 224.537C108.124 224.529 107.955 224.526 107.778 224.526V231.423Z" fill="#FFF6DB"/>
<path d="M125.562 225.735C125.562 226.917 125.374 227.957 124.998 228.855C124.622 229.754 124.065 230.456 123.328 230.963C122.591 231.47 121.674 231.723 120.576 231.723C119.486 231.723 118.572 231.47 117.835 230.963C117.098 230.448 116.542 229.742 116.165 228.844C115.797 227.938 115.613 226.902 115.613 225.735C115.613 224.568 115.801 223.535 116.177 222.637C116.553 221.731 117.11 221.025 117.847 220.518C118.584 220.011 119.493 219.758 120.576 219.758C121.681 219.758 122.603 220.015 123.34 220.53C124.077 221.036 124.629 221.743 124.998 222.649C125.374 223.547 125.562 224.575 125.562 225.735ZM118.066 225.735C118.066 226.456 118.138 227.136 118.284 227.773C118.43 228.403 118.687 228.917 119.056 229.316C119.424 229.708 119.939 229.903 120.599 229.903C121.252 229.903 121.758 229.708 122.119 229.316C122.488 228.917 122.745 228.403 122.891 227.773C123.036 227.136 123.109 226.456 123.109 225.735C123.109 225.028 123.036 224.357 122.891 223.719C122.745 223.082 122.488 222.564 122.119 222.165C121.758 221.766 121.252 221.566 120.599 221.566C119.939 221.566 119.424 221.766 119.056 222.165C118.687 222.564 118.43 223.082 118.284 223.719C118.138 224.357 118.066 225.028 118.066 225.735Z" fill="#FFF6DB"/>
<path d="M128.258 222.487C128.258 222.088 128.231 221.712 128.177 221.359C128.123 220.998 128.023 220.683 127.878 220.414C128.054 220.261 128.277 220.138 128.546 220.046C128.814 219.946 129.091 219.896 129.375 219.896C129.843 219.896 130.169 220.027 130.354 220.288C130.545 220.541 130.641 220.917 130.641 221.416V227.278C130.641 228.046 130.737 228.606 130.929 228.959C131.129 229.312 131.509 229.489 132.069 229.489C132.522 229.489 133.014 229.362 133.543 229.109C134.073 228.855 134.545 228.506 134.96 228.061V220.057C135.282 219.996 135.674 219.965 136.134 219.965C136.603 219.965 137.002 219.996 137.332 220.057V228.199C137.332 228.644 137.378 229.067 137.47 229.466C137.562 229.857 137.731 230.164 137.977 230.387C137.915 230.602 137.8 230.828 137.631 231.066C137.463 231.297 137.282 231.473 137.09 231.596C136.583 231.496 136.173 231.297 135.858 230.997C135.551 230.698 135.321 230.337 135.167 229.915C134.668 230.406 134.085 230.817 133.417 231.147C132.749 231.47 132.046 231.631 131.309 231.631C130.595 231.631 130.012 231.466 129.559 231.136C129.114 230.798 128.784 230.345 128.569 229.777C128.361 229.201 128.258 228.56 128.258 227.854V222.487Z" fill="#FFF6DB"/>
<path d="M150.031 228.994C150.031 229.393 150.058 229.773 150.112 230.134C150.165 230.487 150.265 230.798 150.411 231.066C150.242 231.212 150.023 231.331 149.755 231.423C149.486 231.523 149.206 231.573 148.914 231.573C148.453 231.573 148.127 231.447 147.935 231.193C147.751 230.94 147.659 230.564 147.659 230.065V224.203C147.659 223.435 147.559 222.875 147.359 222.522C147.16 222.169 146.78 221.992 146.219 221.992C145.766 221.992 145.275 222.119 144.745 222.372C144.216 222.625 143.747 222.971 143.34 223.409V231.423C143.018 231.485 142.623 231.516 142.154 231.516C141.686 231.516 141.287 231.485 140.957 231.423V220.104L141.106 219.954H142.005C142.45 219.954 142.772 220.081 142.972 220.334C143.179 220.58 143.298 220.925 143.329 221.37C143.82 220.925 144.381 220.56 145.01 220.276C145.64 219.992 146.296 219.85 146.979 219.85C147.701 219.85 148.284 220.019 148.73 220.357C149.183 220.687 149.513 221.14 149.72 221.716C149.927 222.284 150.031 222.921 150.031 223.627V228.994Z" fill="#FFF6DB"/>
<path d="M152.746 225.873C152.746 224.506 152.961 223.378 153.391 222.487C153.821 221.597 154.374 220.937 155.049 220.507C155.725 220.069 156.431 219.85 157.168 219.85C157.652 219.85 158.109 219.923 158.539 220.069C158.969 220.207 159.379 220.388 159.771 220.61V214.634L159.921 214.484H160.819C161.318 214.484 161.656 214.607 161.832 214.852C162.016 215.09 162.109 215.474 162.109 216.004V228.188C162.109 228.633 162.151 229.051 162.235 229.443C162.327 229.834 162.5 230.141 162.753 230.364C162.692 230.579 162.573 230.809 162.396 231.055C162.228 231.293 162.047 231.473 161.855 231.596C161.395 231.504 161.018 231.331 160.727 231.078C160.435 230.825 160.212 230.518 160.059 230.157C159.667 230.602 159.184 230.974 158.608 231.274C158.04 231.573 157.406 231.723 156.708 231.723C155.833 231.723 155.099 231.477 154.508 230.986C153.925 230.487 153.483 229.8 153.184 228.925C152.892 228.042 152.746 227.024 152.746 225.873ZM155.176 225.884C155.176 227.259 155.383 228.245 155.798 228.844C156.213 229.443 156.7 229.742 157.26 229.742C157.667 229.742 158.097 229.623 158.55 229.385C159.011 229.147 159.418 228.779 159.771 228.28V222.591C159.425 222.361 159.057 222.165 158.665 222.004C158.282 221.842 157.89 221.762 157.491 221.762C156.846 221.762 156.297 222.1 155.844 222.775C155.399 223.443 155.176 224.48 155.176 225.884Z" fill="#FFF6DB"/>
<path d="M165.097 221.151C165.151 220.937 165.262 220.702 165.431 220.449C165.6 220.196 165.777 220.008 165.961 219.885C166.514 220.008 166.963 220.246 167.308 220.599C167.662 220.952 167.919 221.397 168.08 221.935C168.349 221.351 168.725 220.867 169.209 220.484C169.692 220.092 170.318 219.896 171.086 219.896C171.293 219.896 171.492 219.908 171.684 219.931C171.876 219.954 172.084 219.985 172.306 220.023C172.306 220.345 172.26 220.722 172.168 221.151C172.084 221.574 171.938 221.946 171.73 222.268C171.577 222.23 171.42 222.207 171.258 222.199C171.105 222.184 170.951 222.173 170.798 222.165C170.176 222.165 169.665 222.341 169.266 222.695C168.875 223.04 168.56 223.447 168.322 223.915V231.423C167.999 231.485 167.604 231.516 167.136 231.516C166.675 231.516 166.28 231.485 165.95 231.423V223.524C165.95 222.91 165.857 222.407 165.673 222.015C165.489 221.624 165.297 221.336 165.097 221.151Z" fill="#FFF6DB"/>
<path d="M180.472 231.066C180.134 232.233 179.762 233.216 179.355 234.015C178.956 234.813 178.442 235.419 177.812 235.834C177.182 236.249 176.357 236.456 175.336 236.456C174.975 236.456 174.576 236.414 174.139 236.329C173.709 236.252 173.375 236.172 173.137 236.087C173.114 235.811 173.152 235.504 173.252 235.166C173.359 234.828 173.49 234.567 173.643 234.383C173.835 234.444 174.092 234.506 174.415 234.567C174.737 234.629 175.048 234.659 175.348 234.659C176.123 234.659 176.71 234.402 177.11 233.888C177.516 233.373 177.85 232.683 178.111 231.815L178.192 231.539C177.716 231.523 177.336 231.431 177.052 231.262C176.768 231.086 176.553 230.767 176.407 230.306L173.39 220.242C173.92 219.996 174.4 219.873 174.829 219.873C175.113 219.873 175.355 219.95 175.555 220.104C175.762 220.249 175.92 220.53 176.027 220.944L177.593 226.241C177.747 226.771 177.9 227.358 178.054 228.003C178.215 228.648 178.346 229.189 178.445 229.627C178.476 229.735 178.549 229.788 178.664 229.788L181.186 220.046C181.332 220.015 181.497 219.992 181.681 219.977C181.866 219.954 182.038 219.942 182.199 219.942C182.414 219.942 182.626 219.958 182.833 219.988C183.04 220.011 183.24 220.054 183.432 220.115L183.512 220.253L180.472 231.066Z" fill="#FFF6DB"/>
<path d="M199.404 215.693C199.565 215.655 199.734 215.632 199.911 215.624C200.095 215.609 200.279 215.601 200.463 215.601C200.648 215.601 200.843 215.616 201.051 215.647C201.258 215.67 201.438 215.705 201.592 215.751L201.696 215.912L197.135 231.435C196.529 231.496 195.895 231.527 195.235 231.527C194.759 231.527 194.391 231.447 194.13 231.285C193.876 231.116 193.684 230.805 193.554 230.353L189.316 215.9C189.546 215.801 189.788 215.716 190.042 215.647C190.295 215.57 190.552 215.532 190.813 215.532C191.151 215.532 191.427 215.624 191.642 215.808C191.857 215.985 192.026 216.292 192.149 216.729L194.544 225.032C194.706 225.6 194.874 226.253 195.051 226.99C195.235 227.727 195.396 228.395 195.535 228.994C195.573 229.147 195.646 229.224 195.753 229.224L199.404 215.693Z" fill="#FFF6DB"/>
<path d="M206.56 231.423C206.23 231.485 205.835 231.516 205.374 231.516C204.906 231.516 204.507 231.485 204.176 231.423V222.982C204.176 222.576 204.104 222.276 203.958 222.084C203.812 221.885 203.551 221.785 203.175 221.785H202.921C202.852 221.516 202.818 221.24 202.818 220.956C202.818 220.664 202.852 220.372 202.921 220.081C203.213 220.042 203.486 220.015 203.739 220C204 219.985 204.215 219.977 204.384 219.977H204.695C205.27 219.977 205.723 220.161 206.054 220.53C206.391 220.89 206.56 221.389 206.56 222.027V231.423ZM203.474 216.983C203.474 216.591 203.543 216.25 203.681 215.958C203.819 215.873 204.008 215.804 204.246 215.751C204.484 215.697 204.718 215.67 204.948 215.67C205.163 215.67 205.397 215.697 205.65 215.751C205.904 215.804 206.092 215.873 206.215 215.958C206.284 216.088 206.334 216.253 206.364 216.453C206.403 216.645 206.422 216.822 206.422 216.983C206.422 217.367 206.353 217.708 206.215 218.008C206.1 218.092 205.912 218.161 205.65 218.215C205.397 218.261 205.163 218.284 204.948 218.284C204.718 218.284 204.48 218.261 204.234 218.215C203.996 218.161 203.812 218.092 203.681 218.008C203.543 217.708 203.474 217.367 203.474 216.983Z" fill="#FFF6DB"/>
<path d="M209.473 221.151C209.527 220.937 209.638 220.702 209.807 220.449C209.976 220.196 210.153 220.008 210.337 219.885C210.89 220.008 211.339 220.246 211.684 220.599C212.037 220.952 212.295 221.397 212.456 221.935C212.725 221.351 213.101 220.867 213.584 220.484C214.068 220.092 214.694 219.896 215.461 219.896C215.669 219.896 215.868 219.908 216.06 219.931C216.252 219.954 216.46 219.985 216.682 220.023C216.682 220.345 216.636 220.722 216.544 221.151C216.46 221.574 216.314 221.946 216.106 222.268C215.953 222.23 215.795 222.207 215.634 222.199C215.481 222.184 215.327 222.173 215.174 222.165C214.552 222.165 214.041 222.341 213.642 222.695C213.25 223.04 212.936 223.447 212.698 223.915V231.423C212.375 231.485 211.98 231.516 211.512 231.516C211.051 231.516 210.656 231.485 210.325 231.423V223.524C210.325 222.91 210.233 222.407 210.049 222.015C209.865 221.624 209.673 221.336 209.473 221.151Z" fill="#FFF6DB"/>
<path d="M219.518 218.042C219.518 217.513 219.607 217.129 219.783 216.891C219.96 216.645 220.301 216.522 220.808 216.522H221.706L221.845 216.672V220.069L224.7 220.034C224.77 220.334 224.804 220.622 224.804 220.898C224.804 221.213 224.77 221.508 224.7 221.785L221.845 221.75V228.637C221.845 228.944 221.918 229.189 222.063 229.374C222.209 229.55 222.455 229.639 222.8 229.639H224.378C224.509 229.992 224.574 230.391 224.574 230.836C224.574 230.928 224.57 231.02 224.562 231.113C224.562 231.197 224.551 231.278 224.528 231.354C224.144 231.4 223.733 231.439 223.296 231.47C222.858 231.508 222.413 231.527 221.96 231.527C220.332 231.527 219.518 230.736 219.518 229.155V221.762L217.837 221.785C217.768 221.508 217.733 221.213 217.733 220.898C217.733 220.622 217.768 220.334 217.837 220.034L219.518 220.057V218.042Z" fill="#FFF6DB"/>
<path d="M226.771 222.487C226.771 222.088 226.744 221.712 226.69 221.359C226.636 220.998 226.537 220.683 226.391 220.414C226.567 220.261 226.79 220.138 227.059 220.046C227.327 219.946 227.604 219.896 227.888 219.896C228.356 219.896 228.682 220.027 228.867 220.288C229.059 220.541 229.155 220.917 229.155 221.416V227.278C229.155 228.046 229.251 228.606 229.442 228.959C229.642 229.312 230.022 229.489 230.582 229.489C231.035 229.489 231.527 229.362 232.057 229.109C232.586 228.855 233.058 228.506 233.473 228.061V220.057C233.795 219.996 234.187 219.965 234.648 219.965C235.116 219.965 235.515 219.996 235.845 220.057V228.199C235.845 228.644 235.891 229.067 235.983 229.466C236.075 229.857 236.244 230.164 236.49 230.387C236.429 230.602 236.313 230.828 236.145 231.066C235.976 231.297 235.795 231.473 235.603 231.596C235.097 231.496 234.686 231.297 234.371 230.997C234.064 230.698 233.834 230.337 233.68 229.915C233.181 230.406 232.598 230.817 231.93 231.147C231.262 231.47 230.559 231.631 229.822 231.631C229.108 231.631 228.525 231.466 228.072 231.136C227.627 230.798 227.297 230.345 227.082 229.777C226.874 229.201 226.771 228.56 226.771 227.854V222.487Z" fill="#FFF6DB"/>
<path d="M238.675 228.326C238.675 227.451 238.867 226.733 239.251 226.172C239.642 225.612 240.168 225.197 240.829 224.929C241.496 224.652 242.245 224.514 243.074 224.514C243.397 224.514 243.75 224.526 244.134 224.549C244.525 224.564 244.913 224.599 245.297 224.652V223.766C245.297 223.044 245.132 222.526 244.801 222.211C244.471 221.896 244.011 221.739 243.42 221.739C242.836 221.739 242.233 221.827 241.612 222.004C240.997 222.173 240.391 222.376 239.792 222.614C239.6 222.422 239.439 222.161 239.309 221.831C239.178 221.493 239.105 221.171 239.09 220.864C239.742 220.587 240.506 220.342 241.381 220.127C242.264 219.912 243.097 219.804 243.88 219.804C245.009 219.804 245.919 220.119 246.609 220.748C247.3 221.378 247.646 222.353 247.646 223.673V228.395C247.646 228.825 247.684 229.205 247.761 229.535C247.845 229.857 248.022 230.134 248.291 230.364C248.222 230.579 248.103 230.809 247.934 231.055C247.765 231.293 247.584 231.473 247.393 231.596C246.917 231.504 246.529 231.328 246.229 231.066C245.938 230.805 245.715 230.498 245.562 230.145C245.147 230.544 244.648 230.909 244.064 231.239C243.481 231.562 242.813 231.723 242.061 231.723C241.301 231.723 240.667 231.554 240.161 231.216C239.662 230.878 239.289 230.448 239.044 229.926C238.798 229.404 238.675 228.871 238.675 228.326ZM241.036 228.165C241.036 228.633 241.17 229.032 241.439 229.362C241.708 229.685 242.091 229.846 242.59 229.846C243.02 229.846 243.477 229.727 243.961 229.489C244.445 229.251 244.89 228.902 245.297 228.441V226.264C244.951 226.226 244.598 226.199 244.237 226.184C243.884 226.168 243.546 226.161 243.224 226.161C242.525 226.161 241.984 226.337 241.6 226.691C241.224 227.044 241.036 227.535 241.036 228.165Z" fill="#FFF6DB"/>
<path d="M255.196 229.639C255.327 229.992 255.392 230.391 255.392 230.836C255.392 230.928 255.388 231.02 255.381 231.113C255.373 231.197 255.361 231.278 255.346 231.354C255.077 231.393 254.759 231.431 254.39 231.47C254.029 231.508 253.692 231.527 253.377 231.527C251.865 231.527 251.108 230.736 251.108 229.155V214.634L251.258 214.484H252.156C252.655 214.484 252.993 214.607 253.17 214.852C253.346 215.09 253.434 215.474 253.434 216.004V228.625C253.434 229.301 253.738 229.639 254.344 229.639H255.196Z" fill="#FFF6DB"/>
<path d="M265.645 219.436C265.645 219.129 265.645 218.848 265.645 218.595C265.645 218.342 265.645 218.054 265.645 217.731C265.484 217.731 265.261 217.735 264.977 217.743C264.693 217.751 264.47 217.754 264.309 217.754H261.58C261.542 217.578 261.515 217.401 261.499 217.225C261.484 217.048 261.476 216.883 261.476 216.729C261.476 216.576 261.484 216.411 261.499 216.234C261.515 216.058 261.542 215.877 261.58 215.693H272.163C272.255 215.992 272.301 216.315 272.301 216.66C272.301 217.06 272.19 217.344 271.967 217.513C271.745 217.674 271.399 217.754 270.931 217.754H269.422C269.269 217.754 269.046 217.751 268.754 217.743C268.47 217.735 268.251 217.731 268.098 217.731H268.086C268.086 218.054 268.086 218.342 268.086 218.595C268.094 218.848 268.098 219.129 268.098 219.436V231.423C267.898 231.462 267.687 231.485 267.465 231.493C267.25 231.508 267.05 231.516 266.866 231.516C266.681 231.516 266.478 231.508 266.255 231.493C266.04 231.485 265.837 231.462 265.645 231.423V219.436Z" fill="#FFF6DB"/>
<path d="M271.828 228.326C271.828 227.451 272.02 226.733 272.404 226.172C272.795 225.612 273.321 225.197 273.981 224.929C274.649 224.652 275.398 224.514 276.227 224.514C276.549 224.514 276.902 224.526 277.286 224.549C277.678 224.564 278.065 224.599 278.449 224.652V223.766C278.449 223.044 278.284 222.526 277.954 222.211C277.624 221.896 277.163 221.739 276.572 221.739C275.989 221.739 275.386 221.827 274.764 222.004C274.15 222.173 273.544 222.376 272.945 222.614C272.753 222.422 272.592 222.161 272.461 221.831C272.331 221.493 272.258 221.171 272.242 220.864C272.895 220.587 273.659 220.342 274.534 220.127C275.417 219.912 276.25 219.804 277.033 219.804C278.161 219.804 279.071 220.119 279.762 220.748C280.453 221.378 280.798 222.353 280.798 223.673V228.395C280.798 228.825 280.837 229.205 280.914 229.535C280.998 229.857 281.175 230.134 281.443 230.364C281.374 230.579 281.255 230.809 281.086 231.055C280.917 231.293 280.737 231.473 280.545 231.596C280.069 231.504 279.681 231.328 279.382 231.066C279.09 230.805 278.868 230.498 278.714 230.145C278.3 230.544 277.801 230.909 277.217 231.239C276.634 231.562 275.966 231.723 275.213 231.723C274.453 231.723 273.82 231.554 273.313 231.216C272.814 230.878 272.442 230.448 272.196 229.926C271.951 229.404 271.828 228.871 271.828 228.326ZM274.188 228.165C274.188 228.633 274.323 229.032 274.592 229.362C274.86 229.685 275.244 229.846 275.743 229.846C276.173 229.846 276.63 229.727 277.113 229.489C277.597 229.251 278.042 228.902 278.449 228.441V226.264C278.104 226.226 277.751 226.199 277.39 226.184C277.037 226.168 276.699 226.161 276.376 226.161C275.678 226.161 275.137 226.337 274.753 226.691C274.377 227.044 274.188 227.535 274.188 228.165Z" fill="#FFF6DB"/>
<path d="M293.658 225.597C293.658 226.94 293.424 228.057 292.955 228.948C292.487 229.83 291.861 230.495 291.078 230.94C290.295 231.377 289.431 231.596 288.487 231.596C287.75 231.596 287.029 231.531 286.322 231.4C285.616 231.27 284.94 231.086 284.295 230.848V214.634L284.445 214.484H285.332C285.831 214.484 286.169 214.607 286.345 214.852C286.529 215.09 286.622 215.474 286.622 216.004V221.025C286.998 220.71 287.439 220.438 287.946 220.207C288.46 219.969 289.036 219.85 289.673 219.85C290.548 219.85 291.282 220.096 291.873 220.587C292.464 221.079 292.909 221.758 293.209 222.625C293.508 223.485 293.658 224.476 293.658 225.597ZM289.121 221.842C288.675 221.835 288.23 221.95 287.785 222.188C287.347 222.426 286.959 222.741 286.622 223.132V229.558C287.19 229.742 287.815 229.834 288.499 229.834C289.297 229.834 289.95 229.481 290.456 228.775C290.971 228.069 291.228 227.017 291.228 225.62C291.228 224.284 291.024 223.32 290.618 222.729C290.218 222.138 289.719 221.842 289.121 221.842Z" fill="#FFF6DB"/>
<path d="M300.494 229.639C300.625 229.992 300.69 230.391 300.69 230.836C300.69 230.928 300.686 231.02 300.679 231.113C300.671 231.197 300.66 231.278 300.644 231.354C300.375 231.393 300.057 231.431 299.688 231.47C299.328 231.508 298.99 231.527 298.675 231.527C297.163 231.527 296.406 230.736 296.406 229.155V214.634L296.556 214.484H297.454C297.953 214.484 298.291 214.607 298.468 214.852C298.644 215.09 298.733 215.474 298.733 216.004V228.625C298.733 229.301 299.036 229.639 299.642 229.639H300.494Z" fill="#FFF6DB"/>
<path d="M311.266 230.422C310.713 230.813 310.057 231.128 309.297 231.366C308.537 231.604 307.757 231.723 306.959 231.723C306.045 231.723 305.281 231.562 304.667 231.239C304.053 230.909 303.566 230.468 303.205 229.915C302.844 229.354 302.587 228.717 302.433 228.003C302.28 227.282 302.203 226.533 302.203 225.758C302.203 224.614 302.379 223.589 302.733 222.683C303.093 221.777 303.627 221.063 304.333 220.541C305.047 220.019 305.938 219.758 307.005 219.758C308.003 219.758 308.84 219.977 309.515 220.414C310.199 220.852 310.713 221.443 311.058 222.188C311.404 222.925 311.577 223.75 311.577 224.664C311.577 225.032 311.561 225.351 311.531 225.62C311.508 225.881 311.465 226.168 311.404 226.483H304.667C304.713 227.443 304.924 228.234 305.301 228.855C305.677 229.477 306.349 229.788 307.316 229.788C307.892 229.788 308.448 229.704 308.986 229.535C309.523 229.366 310.037 229.159 310.529 228.913C310.721 229.097 310.882 229.335 311.012 229.627C311.151 229.919 311.235 230.184 311.266 230.422ZM307.005 221.508C306.268 221.508 305.704 221.796 305.312 222.372C304.928 222.948 304.713 223.746 304.667 224.767H309.297V224.468C309.297 223.662 309.12 222.967 308.767 222.384C308.414 221.8 307.826 221.508 307.005 221.508Z" fill="#FFF6DB"/>
<path d="M314.95 218.042C314.95 217.513 315.039 217.129 315.215 216.891C315.392 216.645 315.733 216.522 316.24 216.522H317.138L317.276 216.672V220.069L320.132 220.034C320.201 220.334 320.236 220.622 320.236 220.898C320.236 221.213 320.201 221.508 320.132 221.785L317.276 221.75V228.637C317.276 228.944 317.349 229.189 317.495 229.374C317.641 229.55 317.887 229.639 318.232 229.639H319.81C319.94 229.992 320.006 230.391 320.006 230.836C320.006 230.928 320.002 231.02 319.994 231.113C319.994 231.197 319.983 231.278 319.96 231.354C319.576 231.4 319.165 231.439 318.727 231.47C318.29 231.508 317.845 231.527 317.392 231.527C315.764 231.527 314.95 230.736 314.95 229.155V221.762L313.269 221.785C313.2 221.508 313.165 221.213 313.165 220.898C313.165 220.622 313.2 220.334 313.269 220.034L314.95 220.057V218.042Z" fill="#FFF6DB"/>
<path d="M331.225 225.735C331.225 226.917 331.037 227.957 330.661 228.855C330.285 229.754 329.728 230.456 328.991 230.963C328.254 231.47 327.337 231.723 326.239 231.723C325.149 231.723 324.235 231.47 323.498 230.963C322.761 230.448 322.205 229.742 321.829 228.844C321.46 227.938 321.276 226.902 321.276 225.735C321.276 224.568 321.464 223.535 321.84 222.637C322.216 221.731 322.773 221.025 323.51 220.518C324.247 220.011 325.157 219.758 326.239 219.758C327.345 219.758 328.266 220.015 329.003 220.53C329.74 221.036 330.293 221.743 330.661 222.649C331.037 223.547 331.225 224.575 331.225 225.735ZM323.729 225.735C323.729 226.456 323.802 227.136 323.947 227.773C324.093 228.403 324.35 228.917 324.719 229.316C325.087 229.708 325.602 229.903 326.262 229.903C326.915 229.903 327.421 229.708 327.782 229.316C328.151 228.917 328.408 228.403 328.554 227.773C328.7 227.136 328.772 226.456 328.772 225.735C328.772 225.028 328.7 224.357 328.554 223.719C328.408 223.082 328.151 222.564 327.782 222.165C327.421 221.766 326.915 221.566 326.262 221.566C325.602 221.566 325.087 221.766 324.719 222.165C324.35 222.564 324.093 223.082 323.947 223.719C323.802 224.357 323.729 225.028 323.729 225.735Z" fill="#FFF6DB"/>
<path d="M334.9 219.954C335.667 219.954 336.136 220.342 336.304 221.117C336.688 220.725 337.149 220.403 337.686 220.15C338.231 219.889 338.823 219.758 339.46 219.758C340.335 219.758 341.064 220.004 341.648 220.495C342.239 220.986 342.68 221.674 342.972 222.556C343.271 223.432 343.421 224.445 343.421 225.597C343.421 226.971 343.206 228.103 342.776 228.994C342.346 229.884 341.794 230.544 341.118 230.974C340.442 231.404 339.736 231.619 338.999 231.619C338.508 231.619 338.043 231.55 337.606 231.412C337.176 231.266 336.761 231.082 336.362 230.859V234.867C336.362 235.396 336.27 235.78 336.086 236.018C335.909 236.264 335.571 236.387 335.072 236.387H334.174L334.024 236.237V220.104L334.174 219.954H334.9ZM338.907 221.739C338.492 221.739 338.055 221.862 337.594 222.107C337.134 222.345 336.723 222.725 336.362 223.247V228.867C336.715 229.097 337.088 229.297 337.479 229.466C337.871 229.635 338.27 229.719 338.677 229.719C339.322 229.719 339.867 229.385 340.312 228.717C340.765 228.042 340.991 227.001 340.991 225.597C340.991 224.222 340.784 223.236 340.369 222.637C339.955 222.038 339.467 221.739 338.907 221.739Z" fill="#FFF6DB"/>
</g>
<defs>
<filter id="filter0_d" x="0.894531" y="0.0556641" width="425.77" height="209.457" filterUnits="userSpaceOnUse" color-interpolation-filters="sRGB">
<feFlood flood-opacity="0" result="BackgroundImageFix"/>
<feColorMatrix in="SourceAlpha" type="matrix" values="0 0 0 0 0 0 0 0 0 0 0 0 0 0 0 0 0 0 127 0"/>
<feOffset/>
<feGaussianBlur stdDeviation="3.5"/>
<feColorMatrix type="matrix" values="0 0 0 0 0 0 0 0 0 0 0 0 0 0 0 0 0 0 1 0"/>
<feBlend mode="normal" in2="BackgroundImageFix" result="effect1_dropShadow"/>
<feBlend mode="normal" in="SourceGraphic" in2="effect1_dropShadow" result="shape"/>
</filter>
<filter id="filter1_ddd" x="64.1073" y="200.611" width="295.31" height="53.9645" filterUnits="userSpaceOnUse" color-interpolation-filters="sRGB">
<feFlood flood-opacity="0" result="BackgroundImageFix"/>
<feColorMatrix in="SourceAlpha" type="matrix" values="0 0 0 0 0 0 0 0 0 0 0 0 0 0 0 0 0 0 127 0"/>
<feOffset dy="2.12352"/>
<feGaussianBlur stdDeviation="7.99813"/>
<feColorMatrix type="matrix" values="0 0 0 0 0 0 0 0 0 0 0 0 0 0 0 0 0 0 1 0"/>
<feBlend mode="normal" in2="BackgroundImageFix" result="effect1_dropShadow"/>
<feColorMatrix in="SourceAlpha" type="matrix" values="0 0 0 0 0 0 0 0 0 0 0 0 0 0 0 0 0 0 127 0"/>
<feOffset dy="1.52345"/>
<feGaussianBlur stdDeviation="2.28518"/>
<feColorMatrix type="matrix" values="0 0 0 0 0 0 0 0 0 0 0 0 0 0 0 0 0 0 1 0"/>
<feBlend mode="normal" in2="effect1_dropShadow" result="effect2_dropShadow"/>
<feColorMatrix in="SourceAlpha" type="matrix" values="0 0 0 0 0 0 0 0 0 0 0 0 0 0 0 0 0 0 127 0"/>
<feOffset/>
<feGaussianBlur stdDeviation="1.52345"/>
<feColorMatrix type="matrix" values="0 0 0 0 0 0 0 0 0 0 0 0 0 0 0 0 0 0 0.8 0"/>
<feBlend mode="normal" in2="effect2_dropShadow" result="effect3_dropShadow"/>
<feBlend mode="normal" in="SourceGraphic" in2="effect3_dropShadow" result="shape"/>
</filter>
<linearGradient id="paint0_linear" x1="225.366" y1="11.0557" x2="225.366" y2="198.513" gradientUnits="userSpaceOnUse">
<stop stop-color="#884239"/>
<stop offset="1" stop-color="#6D281F"/>
</linearGradient>
</defs>
</svg>
